<svg width="25" height="25" viewBox="0 0 34 34" fill="none" xmlns="http://www.w3.org/2000/svg">
<path d="M17 33C25.8366 33 33 25.8366 33 17C33 8.16344 25.8366 1 17 1C8.16344 1 1 8.16344 1 17C1 25.8366 8.16344 33 17 33Z" stroke="#CBA1A5"/>
<path d="M14.9477 10.6471C13.5383 10.6471 12.1866 11.211 11.19 12.2149C10.1934 13.2188 9.6335 14.5803 9.6335 16C9.6335 17.4197 10.1934 18.7812 11.19 19.7851C12.1866 20.789 13.5383 21.3529 14.9477 21.3529H20.6707C21.1868 21.3524 21.6969 21.2426 22.1681 21.0305C22.6392 20.8185 23.0608 20.509 23.4054 20.1221C23.7501 19.7353 24.0101 19.2797 24.1686 18.785C24.327 18.2903 24.3804 17.7676 24.3252 17.2508C24.27 16.7339 24.1075 16.2346 23.8482 15.7852C23.589 15.3357 23.2388 14.9463 22.8204 14.6421C22.4019 14.3379 21.9246 14.1257 21.4195 14.0195C20.9144 13.9132 20.3927 13.9151 19.8883 14.0252C19.4954 13.0285 18.8143 12.1736 17.9334 11.5713C17.0526 10.9691 16.0124 10.647 14.9477 10.6471ZM20.6707 23H14.9477C13.7379 22.9997 12.5491 22.6813 11.4989 22.0762C10.4488 21.4712 9.57365 20.6004 8.96007 19.5501C8.34649 18.4999 8.01575 17.3064 8.00055 16.0879C7.98536 14.8694 8.28623 13.6679 8.87343 12.6025C9.46062 11.537 10.3138 10.6444 11.3485 10.013C12.3833 9.38155 13.5637 9.03316 14.7732 9.00225C15.9826 8.97135 17.1791 9.25903 18.2442 9.83681C19.3095 10.4146 20.2064 11.2625 20.8465 12.2966C22.2427 12.3392 23.5661 12.9337 24.5304 13.9515C25.4947 14.9694 26.0224 16.3288 25.9993 17.7356C25.9762 19.1424 25.4042 20.4834 24.407 21.4686C23.4098 22.4538 22.0676 23.0039 20.6707 23Z" fill="#CDA0A7"/>
</svg>
