<svg width="25" height="25" viewBox="0 0 34 34" fill="none" xmlns="http://www.w3.org/2000/svg">
<path d="M21.1667 21.9999V20.3333H21.5834C22.0642 20.3332 22.5376 20.2142 22.9614 19.987C23.3852 19.7597 23.7462 19.4312 24.0123 19.0307C24.2784 18.6302 24.4413 18.1701 24.4866 17.6913C24.5319 17.2126 24.4582 16.7301 24.2719 16.2868C24.0856 15.8435 23.7926 15.4531 23.419 15.1504C23.0454 14.8477 22.6027 14.642 22.1304 14.5518C21.6581 14.4615 21.1708 14.4894 20.7118 14.6331C20.2529 14.7767 19.8366 15.0315 19.5 15.3749V15.3333C19.4997 14.4167 19.2474 13.5178 18.7708 12.7349C18.2941 11.952 17.6115 11.3152 16.7973 10.8941C15.9832 10.4729 15.069 10.2837 14.1546 10.347C13.2402 10.4103 12.3608 10.7238 11.6125 11.2531C10.8643 11.7824 10.2759 12.5073 9.91167 13.3484C9.54747 14.1895 9.4215 15.1146 9.5475 16.0224C9.67351 16.9303 10.0467 17.7861 10.6261 18.4962C11.2056 19.2064 11.9692 19.7436 12.8334 20.0491V21.7899C11.7281 21.5039 10.7148 20.9389 9.89061 20.149C9.06638 19.359 8.45882 18.3707 8.12613 17.2786C7.79345 16.1865 7.74679 15.0272 7.99063 13.9119C8.23447 12.7966 8.76064 11.7627 9.51872 10.909C10.2768 10.0554 11.2414 9.41077 12.3201 9.03687C13.3987 8.66297 14.5554 8.57234 15.6791 8.77367C16.8029 8.975 17.8561 9.46154 18.7379 10.1867C19.6197 10.9118 20.3005 11.8512 20.715 12.9149C21.3417 12.795 21.9866 12.8073 22.6083 12.951C23.23 13.0946 23.8148 13.3665 24.3254 13.7492C24.8359 14.1319 25.261 14.617 25.5732 15.1734C25.8855 15.7299 26.0782 16.3454 26.1389 16.9805C26.1996 17.6157 26.127 18.2566 25.9258 18.8621C25.7246 19.4676 25.3991 20.0244 24.9703 20.4969C24.5415 20.9694 24.0187 21.3471 23.4355 21.606C22.8523 21.8648 22.2214 21.999 21.5834 21.9999H21.1667ZM14.5 20.3333H16.1667V23.6666H14.5V20.3333ZM17.8334 22.8333H19.5V26.1666H17.8334V22.8333Z" fill="#CAA0A4"/>
<path d="M17 33C25.8366 33 33 25.8366 33 17C33 8.16344 25.8366 1 17 1C8.16344 1 1 8.16344 1 17C1 25.8366 8.16344 33 17 33Z" stroke="#CBA1A5"/>
</svg>
