<svg width="25" height="25" viewBox="0 0 34 34" fill="none" xmlns="http://www.w3.org/2000/svg">
<path d="M17 33C25.8366 33 33 25.8366 33 17C33 8.16344 25.8366 1 17 1C8.16344 1 1 8.16344 1 17C1 25.8366 8.16344 33 17 33Z" stroke="#CBA1A5"/>
<path d="M9.40037 16.7603C8.84543 15.3633 8.86818 13.803 9.46363 12.4228C10.0591 11.0425 11.1784 9.95531 12.5755 9.40037C13.9725 8.84543 15.5328 8.86818 16.913 9.46363C18.2933 10.0591 19.3805 11.1784 19.9354 12.5755C20.5291 12.4608 21.1413 12.4858 21.7237 12.6486C22.306 12.8115 22.8424 13.1076 23.2905 13.5136C23.7386 13.9196 24.086 14.4244 24.3052 14.9879C24.5245 15.5514 24.6096 16.1582 24.5537 16.7603H23.1279C23.2039 16.2424 23.1142 15.7138 22.8714 15.25C22.6286 14.7863 22.2452 14.4113 21.7763 14.1788C21.3073 13.9463 20.7768 13.8682 20.2607 13.9557C19.7447 14.0431 19.2695 14.2917 18.9034 14.6658V14.6303C18.9032 13.9783 18.753 13.3351 18.4644 12.7504C18.1758 12.1657 17.7565 11.6552 17.2391 11.2585C16.7216 10.8618 16.1198 10.5895 15.4802 10.4626C14.8406 10.3358 14.1804 10.3578 13.5507 10.527C12.921 10.6962 12.3387 11.0079 11.8487 11.4382C11.3588 11.8685 10.9745 12.4058 10.7255 13.0084C10.4765 13.611 10.3695 14.2628 10.4127 14.9134C10.456 15.564 10.6484 16.196 10.975 16.7603H9.40037ZM11.1117 21.0053H23.1534V22.422H11.1117V21.0053ZM9.69504 18.172H24.57V19.5887H9.69504V18.172Z" fill="#CAA0A4"/>
</svg>
