<svg width="25" height="25" viewBox="0 0 34 34" fill="none" xmlns="http://www.w3.org/2000/svg">
<path d="M17 33C25.8366 33 33 25.8366 33 17C33 8.16344 25.8366 1 17 1C8.16344 1 1 8.16344 1 17C1 25.8366 8.16344 33 17 33Z" stroke="#CBA1A5"/>
<path d="M12.6005 17.5C12.4981 16.8908 12.5297 16.2666 12.6932 15.6709C12.8566 15.0752 13.148 14.5223 13.5469 14.0507C13.9459 13.5791 14.4429 13.2001 15.0033 12.9401C15.5636 12.6802 16.1739 12.5455 16.7917 12.5455C17.4094 12.5455 18.0197 12.6802 18.5801 12.9401C19.1405 13.2001 19.6374 13.5791 20.0364 14.0507C20.4354 14.5223 20.7267 15.0752 20.8902 15.6709C21.0536 16.2666 21.0853 16.8908 20.9829 17.5H19.5357C19.6434 17.0814 19.6538 16.6438 19.5663 16.2206C19.4787 15.7974 19.2956 15.3998 19.0307 15.0583C18.7659 14.7167 18.4265 14.4403 18.0384 14.2502C17.6503 14.06 17.2238 13.9611 16.7917 13.9611C16.3595 13.9611 15.933 14.06 15.545 14.2502C15.1569 14.4403 14.8174 14.7167 14.5526 15.0583C14.2878 15.3998 14.1046 15.7974 14.0171 16.2206C13.9295 16.6438 13.94 17.0814 14.0476 17.5H12.6005ZM9.70833 18.9167H16.7917V20.3333H9.70833V18.9167ZM18.2083 18.9167H23.875V20.3333H18.2083V18.9167ZM19.625 21.75H22.4583V23.1667H19.625V21.75ZM11.125 21.75H18.2083V23.1667H11.125V21.75ZM16.0833 9H17.5V11.125H16.0833V9ZM10.7815 11.783L11.783 10.7815L13.2854 12.2838L12.2838 13.2854L10.7815 11.783ZM21.7996 10.7815L22.8012 11.783L21.2988 13.2854L20.2972 12.2838L21.7996 10.7815ZM24.5833 16.0833V17.5H22.4583V16.0833H24.5833ZM11.125 16.0833V17.5H9V16.0833H11.125Z" fill="#CAA0A4"/>
</svg>
