<svg width="25" height="25" viewBox="0 0 34 34" fill="none" xmlns="http://www.w3.org/2000/svg">
<path d="M17 33C25.8366 33 33 25.8366 33 17C33 8.16344 25.8366 1 17 1C8.16344 1 1 8.16344 1 17C1 25.8366 8.16344 33 17 33Z" stroke="#CBA1A5"/>
<path d="M11.4167 11H14.25V12.4167H11.4167V11ZM19.9167 21.625H22.75V23.0417H19.9167V21.625ZM10 14.5417H17.0833V15.9583H10V14.5417ZM18.5 14.5417H22.75V15.9583H18.5V14.5417ZM11.4167 18.0833H15.6667V19.5H11.4167V18.0833ZM17.0833 18.0833H24.1667V19.5H17.0833V18.0833ZM15.6667 11H24.1667V12.4167H15.6667V11ZM10 21.625H18.5V23.0417H10V21.625Z" fill="#CAA0A4"/>
</svg>
