<svg width="25" height="25" viewBox="0 0 34 34" fill="none" xmlns="http://www.w3.org/2000/svg">
<path d="M17 33C25.8366 33 33 25.8366 33 17C33 8.16344 25.8366 1 17 1C8.16344 1 1 8.16344 1 17C1 25.8366 8.16344 33 17 33Z" stroke="#CBA1A5"/>
<path d="M20.2735 21.9527V20.3336H21.0918C21.6001 20.3333 22.1013 20.2159 22.5557 19.9908C23.0102 19.7656 23.4054 19.4389 23.71 19.0364C24.0147 18.6339 24.2204 18.1668 24.3109 17.672C24.4014 17.1772 24.3742 16.6684 24.2314 16.1859C24.0887 15.7033 23.8343 15.2602 23.4884 14.8918C23.1425 14.5234 22.7147 14.2397 22.2388 14.0632C21.7628 13.8868 21.2519 13.8224 20.7465 13.8751C20.241 13.9279 19.755 14.0964 19.3268 14.3673C19.1238 13.5121 18.6903 12.7273 18.0723 12.0966C17.4543 11.4659 16.6749 11.0127 15.8172 10.7855C14.9595 10.5582 14.0556 10.5653 13.2017 10.806C12.3477 11.0467 11.5757 11.5119 10.9679 12.1523C10.3601 12.7926 9.93914 13.5841 9.74994 14.4423C9.56074 15.3006 9.61034 16.1935 9.89347 17.0261C10.1766 17.8587 10.6826 18.5997 11.3577 19.1703C12.0328 19.7409 12.8517 20.1197 13.7272 20.2664V21.9033C12.0751 21.697 10.5646 20.8757 9.50305 19.6065C8.44147 18.3373 7.90859 16.7157 8.01286 15.0716C8.11712 13.4275 8.8507 11.8844 10.0643 10.7565C11.2779 9.62852 12.8803 9.00043 14.5455 9C15.7088 8.9995 16.8513 9.3058 17.8553 9.88734C18.8592 10.4689 19.6883 11.3047 20.2572 12.3086C20.9272 12.1945 21.614 12.2193 22.2738 12.3814C22.9337 12.5436 23.5524 12.8396 24.0906 13.2506C24.6288 13.6617 25.0748 14.1788 25.4004 14.7694C25.726 15.3599 25.9241 16.0108 25.9821 16.6811C26.0401 17.3513 25.9568 18.0261 25.7374 18.6628C25.518 19.2994 25.1673 19.8841 24.7076 20.3797C24.2478 20.8753 23.689 21.271 23.0666 21.5417C22.4442 21.8125 21.7718 21.9524 21.0918 21.9527H20.2735ZM15.5536 22.5453L17.0004 21.114L18.4471 22.5453C18.7332 22.8283 18.9279 23.1889 19.0068 23.5815C19.0857 23.9741 19.0452 24.381 18.8903 24.7508C18.7355 25.1205 18.4733 25.4366 18.1369 25.659C17.8004 25.8813 17.4049 26 17.0004 26C16.5958 26 16.2003 25.8813 15.8639 25.659C15.5275 25.4366 15.2653 25.1205 15.1104 24.7508C14.9555 24.381 14.915 23.9741 14.9939 23.5815C15.0728 23.1889 15.2676 22.8283 15.5536 22.5453Z" fill="#CAA0A4"/>
</svg>
