<svg width="25" height="25" viewBox="0 0 34 34" fill="none" xmlns="http://www.w3.org/2000/svg">
<path d="M17 33C25.8366 33 33 25.8366 33 17C33 8.16344 25.8366 1 17 1C8.16344 1 1 8.16344 1 17C1 25.8366 8.16344 33 17 33Z" stroke="#CBA1A5"/>
<path d="M10 21.5C10.6049 20.7454 12.1259 19.6889 13.3704 21.5C14.6148 23.3111 16.5679 22.2546 17.2593 21.5C17.8642 20.9969 19.1778 20.2926 20.6296 21.5C21.4074 22.1288 23.1704 23.0092 24 21.5" stroke="#CBA1A5" stroke-width="1.2"/>
<path d="M10 18.5C10.6049 17.7454 12.1259 16.6889 13.3704 18.5C14.6148 20.3111 16.5679 19.2546 17.2593 18.5C17.8642 17.9969 19.1778 17.2926 20.6296 18.5C21.4074 19.1288 23.1704 20.0092 24 18.5" stroke="#CBA1A5" stroke-width="1.2"/>
<path d="M10 15.5C10.6049 14.7454 12.1259 13.6889 13.3704 15.5C14.6148 17.3111 16.5679 16.2546 17.2593 15.5C17.8642 14.9969 19.1778 14.2926 20.6296 15.5C21.4074 16.1288 23.1704 17.0092 24 15.5" stroke="#CBA1A5" stroke-width="1.2"/>
<path d="M10 12.5C10.6049 11.7454 12.1259 10.6889 13.3704 12.5C14.6148 14.3111 16.5679 13.2546 17.2593 12.5C17.8642 11.9969 19.1778 11.2926 20.6296 12.5C21.4074 13.1288 23.1704 14.0092 24 12.5" stroke="#CBA1A5" stroke-width="1.2"/>
</svg>
