<svg width="25" height="25" viewBox="0 0 34 34" fill="none" xmlns="http://www.w3.org/2000/svg">
<path d="M17 33C25.8366 33 33 25.8366 33 17C33 8.16344 25.8366 1 17 1C8.16344 1 1 8.16344 1 17C1 25.8366 8.16344 33 17 33Z" stroke="#CBA1A5"/>
<path d="M18.2748 20.4137L19.7933 19.5063L20.5665 20.8922L19.048 21.7995L20.5665 22.7068L19.7933 24.0927L18.2748 23.1853V25H16.7285V23.1853L15.21 24.0927L14.4368 22.7068L15.9553 21.7995L14.4368 20.8922L15.21 19.5063L16.7285 20.4137V18.599H18.2748V20.4137ZM21.3675 21.7995V20.1993H21.7541C22.2002 20.1992 22.6394 20.085 23.0326 19.8668C23.4258 19.6486 23.7607 19.3331 24.0076 18.9486C24.2545 18.564 24.4057 18.1223 24.4477 17.6626C24.4898 17.203 24.4213 16.7397 24.2485 16.314C24.0757 15.8884 23.8038 15.5135 23.4572 15.2229C23.1105 14.9323 22.6998 14.7348 22.2616 14.6482C21.8234 14.5615 21.3713 14.5883 20.9455 14.7262C20.5197 14.8641 20.1335 15.1088 19.8212 15.4385V15.3985C19.8209 14.5185 19.5868 13.6554 19.1446 12.9037C18.7023 12.152 18.0689 11.5406 17.3136 11.1362C16.5583 10.7319 15.7101 10.5502 14.8617 10.611C14.0133 10.6717 13.1974 10.9727 12.5031 11.4809C11.8089 11.9892 11.263 12.6851 10.9251 13.4927C10.5872 14.3003 10.4703 15.1885 10.5872 16.0602C10.7041 16.9319 11.0503 17.7536 11.588 18.4354C12.1256 19.1173 12.834 19.6331 13.6358 19.9264V21.5979C12.6104 21.3233 11.6703 20.7808 10.9055 20.0223C10.1408 19.2638 9.57712 18.3149 9.26845 17.2663C8.95979 16.2177 8.9165 15.1047 9.14273 14.0338C9.36897 12.963 9.85714 11.9702 10.5605 11.1506C11.2638 10.331 12.1588 9.71203 13.1596 9.35303C14.1604 8.99403 15.2335 8.90701 16.2761 9.10032C17.3187 9.29363 18.2959 9.76078 19.114 10.457C19.9322 11.1532 20.5638 12.0552 20.9484 13.0766C21.5299 12.9614 22.1282 12.9732 22.705 13.1111C23.2818 13.2491 23.8244 13.5101 24.2981 13.8776C24.7718 14.245 25.1661 14.7108 25.4559 15.245C25.7456 15.7793 25.9244 16.3703 25.9807 16.9801C26.037 17.59 25.9697 18.2053 25.783 18.7867C25.5963 19.3681 25.2943 19.9027 24.8965 20.3564C24.4986 20.81 24.0136 21.1727 23.4725 21.4212C22.9314 21.6697 22.3461 21.7986 21.7541 21.7995H21.3675Z" fill="#CAA0A4"/>
</svg>
