<svg width="25" height="25" viewBox="0 0 34 34" fill="none" xmlns="http://www.w3.org/2000/svg">
<path d="M17 33C25.8366 33 33 25.8366 33 17C33 8.16344 25.8366 1 17 1C8.16344 1 1 8.16344 1 17C1 25.8366 8.16344 33 17 33Z" stroke="#CBA1A5"/>
<path d="M16.7917 21.0417C15.6645 21.0417 14.5835 20.5939 13.7865 19.7969C12.9894 18.9998 12.5417 17.9188 12.5417 16.7917C12.5417 15.6645 12.9894 14.5835 13.7865 13.7865C14.5835 12.9894 15.6645 12.5417 16.7917 12.5417C17.9188 12.5417 18.9998 12.9894 19.7969 13.7865C20.5939 14.5835 21.0417 15.6645 21.0417 16.7917C21.0417 17.9188 20.5939 18.9998 19.7969 19.7969C18.9998 20.5939 17.9188 21.0417 16.7917 21.0417ZM16.7917 19.625C17.5431 19.625 18.2638 19.3265 18.7951 18.7951C19.3265 18.2638 19.625 17.5431 19.625 16.7917C19.625 16.0402 19.3265 15.3196 18.7951 14.7882C18.2638 14.2568 17.5431 13.9583 16.7917 13.9583C16.0402 13.9583 15.3196 14.2568 14.7882 14.7882C14.2568 15.3196 13.9583 16.0402 13.9583 16.7917C13.9583 17.5431 14.2568 18.2638 14.7882 18.7951C15.3196 19.3265 16.0402 19.625 16.7917 19.625ZM16.0833 9H17.5V11.125H16.0833V9ZM16.0833 22.4583H17.5V24.5833H16.0833V22.4583ZM10.7815 11.783L11.783 10.7815L13.2854 12.2838L12.2838 13.2854L10.7815 11.783ZM20.2979 21.2995L21.2995 20.2979L22.8019 21.8003L21.8003 22.8019L20.2979 21.2995ZM21.8003 10.7807L22.8019 11.783L21.2995 13.2854L20.2979 12.2838L21.8003 10.7815V10.7807ZM12.2838 20.2979L13.2854 21.2995L11.783 22.8019L10.7815 21.8003L12.2838 20.2979ZM24.5833 16.0833V17.5H22.4583V16.0833H24.5833ZM11.125 16.0833V17.5H9V16.0833H11.125Z" fill="#CAA0A4"/>
</svg>
